<?xml version="1.0" encoding="iso-8859-1"?>
<!-- Generator: Adobe Illustrator 18.1.1, SVG Export Plug-In . SVG Version: 6.00 Build 0)  -->
<svg version="1.1" id="Capa_1" xmlns="http://www.w3.org/2000/svg" xmlns:xlink="http://www.w3.org/1999/xlink" x="0px" y="0px"
	 viewBox="0 0 26.064 26.064" style="enable-background:new 0 0 26.064 26.064;" xml:space="preserve">
<g>
	<path style="fill:#010002;" d="M24.87,14.261l-8.643-8.869c-0.765-0.767-1.691-1.223-2.691-1.223V4.102c0,0-0.465,0-0.504,0
		c-0.04,0-0.079,0-0.119,0c-1.096,0-2.121,0.49-2.885,1.256l-8.834,8.868c-1.592,1.592-1.592,4.197,0,5.79l0.737,0.746
		c0.768,0.77,1.793,1.197,2.886,1.197s2.117-0.422,2.887-1.19l5.328-5.327l5.328,5.328c0.77,0.77,1.794,1.193,2.887,1.193
		s2.118-0.424,2.887-1.193l0.736-0.736C26.462,18.441,26.462,15.852,24.87,14.261z M23.456,18.619l-0.737,0.737
		c-0.403,0.405-0.938,0.606-1.472,0.606s-1.067-0.201-1.473-0.606l-6.742-6.742L6.29,19.356c-0.404,0.405-0.938,0.606-1.473,0.606
		c-0.533,0-1.067-0.201-1.473-0.606l-0.736-0.737c-0.811-0.81-0.811-2.136,0-2.944l8.836-8.836c0.403-0.403,0.937-0.6,1.469-0.6
		c0.04,0,0.079,0.001,0.119,0.003c0.04-0.002,0.079-0.003,0.119-0.003c0.532,0,1.064,0.195,1.47,0.6l8.835,8.836
		C24.266,16.485,24.266,17.81,23.456,18.619z"/>
</g>
<g>
</g>
<g>
</g>
<g>
</g>
<g>
</g>
<g>
</g>
<g>
</g>
<g>
</g>
<g>
</g>
<g>
</g>
<g>
</g>
<g>
</g>
<g>
</g>
<g>
</g>
<g>
</g>
<g>
</g>
</svg>
