<svg width="93" height="93" viewBox="0 0 93 93" fill="none" xmlns="http://www.w3.org/2000/svg">
<g clip-path="url(#clip0)">
<path d="M88.7032 5.4454H70.74V2.74144C70.74 1.22771 69.5123 0 67.9986 0C66.4848 0 65.2571 1.22771 65.2571 2.74144V5.4454H49.2412V2.74144C49.2412 1.22771 48.0135 0 46.4998 0C44.986 0 43.7583 1.22771 43.7583 2.74144V5.4454H28.4232V2.74144C28.4232 1.22771 27.1955 0 25.6818 0C24.168 0 22.9403 1.22771 22.9403 2.74144V5.4454H4.29673C2.783 5.4454 1.5553 6.67311 1.5553 8.18684V70.1305C1.5553 71.6442 2.783 72.8719 4.29673 72.8719H21.1228C23.819 84.3924 34.1697 93 46.4998 93C58.8298 93 69.1806 84.3919 71.8768 72.8719H88.7028C90.2165 72.8719 91.4442 71.6442 91.4442 70.1305V8.18684C91.4447 6.67311 90.2174 5.4454 88.7032 5.4454V5.4454ZM22.9403 10.9283V13.4056C22.9403 14.9193 24.168 16.1471 25.6818 16.1471C27.1955 16.1471 28.4232 14.9193 28.4232 13.4056V10.9283H43.7583V13.4056C43.7583 14.9193 44.986 16.1471 46.4998 16.1471C48.0135 16.1471 49.2412 14.9193 49.2412 13.4056V10.9283H65.2571V13.4056C65.2571 14.9193 66.4848 16.1471 67.9986 16.1471C69.5123 16.1471 70.74 14.9193 70.74 13.4056V10.9283H85.9618V22.1389H7.03817V10.9283H22.9403V10.9283ZM46.4998 87.5171C35.1493 87.5171 25.9148 78.2826 25.9148 66.9321C25.9148 55.5817 35.1493 46.3472 46.4998 46.3472C57.8502 46.3472 67.0847 55.5812 67.0847 66.9321C67.0847 78.2831 57.8507 87.5171 46.4998 87.5171V87.5171ZM72.5562 67.3891C72.5589 67.2364 72.5676 67.0852 72.5676 66.9321C72.5676 52.5583 60.8736 40.8643 46.4998 40.8643C32.126 40.8643 20.4319 52.5583 20.4319 66.9321C20.4319 67.0852 20.441 67.2364 20.4433 67.3891H7.03771V27.6222H85.9613V67.3891H72.5562V67.3891Z" fill="#8D8B8B"/>
<path d="M49.2412 67.6239V54.3618C49.2412 52.8481 48.0135 51.6204 46.4997 51.6204C44.986 51.6204 43.7583 52.8481 43.7583 54.3618V68.7598C43.7583 69.4868 44.0471 70.184 44.5611 70.6985L50.8618 76.9997C51.3973 77.5347 52.0987 77.8024 52.8005 77.8024C53.5018 77.8024 54.2036 77.5347 54.7391 76.9997C55.8096 75.9291 55.8096 74.1933 54.7391 73.1228L49.2412 67.6239Z" fill="#8D8B8B"/>
</g>
<defs>
<clipPath id="clip0">
<rect width="93" height="93" fill="white"/>
</clipPath>
</defs>
</svg>
