<svg width="93" height="93" viewBox="0 0 93 93" fill="none" xmlns="http://www.w3.org/2000/svg">
<path d="M46.4998 0C20.8599 0 0 20.8599 0 46.4998C0 72.1396 20.8599 92.9996 46.4998 92.9996C72.1396 92.9996 92.9996 72.1396 92.9996 46.4998C92.9996 20.8599 72.1401 0 46.4998 0ZM46.4998 86.8803C24.2341 86.8803 6.11972 68.7655 6.11972 46.4998C6.11972 24.2341 24.2341 6.11972 46.4998 6.11972C68.7655 6.11972 86.8798 24.2341 86.8798 46.4998C86.8798 68.7655 68.7655 86.8803 46.4998 86.8803Z" fill="#8D8B8B"/>
<path d="M49.5597 43.7541V26.3811C51.2911 27.0242 52.8018 28.2039 53.8522 29.7994C54.782 31.2109 56.6795 31.6017 58.0905 30.6724C59.502 29.7431 59.8928 27.8455 58.963 26.434C56.7648 23.0962 53.3775 20.8301 49.5597 20.0315V15.1707C49.5597 13.4808 48.1897 12.1108 46.4998 12.1108C44.8099 12.1108 43.4399 13.4808 43.4399 15.1707V20.0223C36.6676 21.4342 31.5642 27.4486 31.5642 34.6336C31.5642 41.8186 36.668 47.8338 43.4399 49.2457V66.6187C41.7085 65.9757 40.1978 64.7959 39.1474 63.2004C38.2176 61.7889 36.3201 61.3977 34.9091 62.3275C33.4976 63.2568 33.1068 65.1543 34.0366 66.5658C36.2349 69.9037 39.6221 72.1697 43.4399 72.9684V77.8287C43.4399 79.5186 44.8099 80.8886 46.4998 80.8886C48.1897 80.8886 49.5597 79.5186 49.5597 77.8287V72.9775C56.332 71.5656 61.4354 65.5513 61.4354 58.3663C61.4354 51.1813 56.332 45.166 49.5597 43.7541V43.7541ZM37.6839 34.6336C37.6839 30.8512 40.0855 27.6278 43.4399 26.3833V42.8838C40.0855 41.6393 37.6839 38.416 37.6839 34.6336V34.6336ZM49.5597 66.6161V50.1156C52.9141 51.3601 55.3157 54.5834 55.3157 58.3658C55.3157 62.1483 52.9146 65.3716 49.5597 66.6161Z" fill="#8D8B8B"/>
</svg>
