<svg width="93" height="93" viewBox="0 0 93 93" fill="none" xmlns="http://www.w3.org/2000/svg">
<path d="M46.5 0C28.4718 0 13.8047 14.6671 13.8047 32.6953C13.8047 38.7864 15.4919 44.7308 18.6852 49.888L44.6389 91.712C45.1361 92.5132 46.0119 93 46.9539 93C46.9612 93 46.9683 93 46.9755 93C47.9257 92.9926 48.8034 92.4907 49.2915 91.6755L74.5836 49.4462C77.6007 44.3981 79.1953 38.6057 79.1953 32.6953C79.1953 14.6671 64.5282 0 46.5 0ZM69.9073 46.6486L46.9127 85.0416L23.3167 47.017C20.6587 42.7244 19.2176 37.7722 19.2176 32.6953C19.2176 17.6718 31.4765 5.41289 46.5 5.41289C61.5235 5.41289 73.7643 17.6718 73.7643 32.6953C73.7643 37.6216 72.4181 42.4472 69.9073 46.6486Z" fill="#8D8B8B"/>
<path d="M46.5 16.3477C37.4859 16.3477 30.1523 23.6812 30.1523 32.6953C30.1523 41.6518 37.3666 49.043 46.5 49.043C55.7461 49.043 62.8477 41.5534 62.8477 32.6953C62.8477 23.6812 55.5141 16.3477 46.5 16.3477ZM46.5 43.6301C40.4592 43.6301 35.5652 38.7198 35.5652 32.6953C35.5652 26.6859 40.4906 21.7605 46.5 21.7605C52.5094 21.7605 57.4166 26.6859 57.4166 32.6953C57.4166 38.6319 52.6365 43.6301 46.5 43.6301Z" fill="#8D8B8B"/>
</svg>
