<svg viewBox="0 0 512 512" xmlns="http://www.w3.org/2000/svg"><path d="m512 256c0 141.386719-114.613281 256-256 256s-256-114.613281-256-256 114.613281-256 256-256 256 114.613281 256 256zm0 0" fill="#00f3ff"/><path d="m212.988281 449.867188 61.460938 61.464843c116.386719-8.292969 211.242187-94.375 232.890625-206.550781l-239.207032-239.207031zm0 0" fill="#00c2ef"/><path d="m325.5 337.816406c0 111.535156-31.117188 126.132813-69.5 126.132813s-69.5-14.597657-69.5-126.132813 31.117188-277.765625 69.5-277.765625 69.5 166.230469 69.5 277.765625zm0 0" fill="#2864f0"/><path d="m256 60.050781c-.132812 0-.261719.007813-.394531.011719v403.886719h.394531c38.382812 0 69.5-14.597657 69.5-126.132813s-31.117188-277.765625-69.5-277.765625zm0 0" fill="#0053bf"/><path d="m256 473.5c-8.285156 0-15-6.714844-15-15v-84.5c0-8.285156 6.714844-15 15-15s15 6.714844 15 15v84.5c0 8.285156-6.714844 15-15 15zm0 0" fill="#0053bf"/><path d="m256 359c-.132812 0-.261719.015625-.394531.019531v114.460938c.132812.003906.261719.019531.394531.019531 8.285156 0 15-6.714844 15-15v-84.5c0-8.285156-6.714844-15-15-15zm0 0" fill="#27488f"/><path d="m189.558594 271.53125 127.078125-50.949219c-1.761719-12.441406-3.757813-24.71875-5.972657-36.605469l-116.683593 46.785157c-1.769531 13.5625-3.253907 27.246093-4.421875 40.769531zm0 0" fill="#ff551c"/><path d="m310.664062 183.976562-55.058593 22.074219v39l61.03125-24.46875c-1.761719-12.441406-3.757813-24.71875-5.972657-36.605469zm0 0" fill="#f24500"/><path d="m196.832031 210.617188 110.339844-44.238282c-2.652344-12.546875-5.546875-24.488281-8.648437-35.53125l-94.160157 37.75c-2.800781 13.457032-5.324219 27.585938-7.53125 42.019532zm0 0" fill="#ff551c"/><path d="m298.523438 130.84375-42.917969 17.207031v39l51.566406-20.671875c-2.652344-12.546875-5.546875-24.488281-8.648437-35.535156zm0 0" fill="#f24500"/></svg>