<svg width="93" height="93" viewBox="0 0 93 93" fill="none" xmlns="http://www.w3.org/2000/svg">
<path d="M92.814 39.8109C92.4915 39.1243 91.8029 38.685 91.0411 38.685H85.2495C81.5672 18.7023 64.0202 3.51196 42.9888 3.51196C19.2862 3.51196 0 22.7982 0 46.5008C0 70.2034 19.2842 89.4876 42.9888 89.4876C58.286 89.4876 72.5523 81.2543 80.2197 68.0051C81.3001 66.1352 80.6629 63.747 78.7911 62.6646C76.9232 61.5823 74.533 62.2194 73.4546 64.0893C67.1782 74.9344 55.504 81.6738 42.9888 81.6738C23.5958 81.6738 7.81579 65.8958 7.81579 46.5047C7.81579 27.1097 23.5958 11.3317 42.9888 11.3317C59.6929 11.3317 73.6881 23.0475 77.2537 38.687H71.5076C70.7458 38.687 70.0592 39.1262 69.7347 39.8128C69.4121 40.4995 69.517 41.3087 70.0038 41.8924L79.7745 53.6161C80.1465 54.0613 80.6946 54.3186 81.2763 54.3186C81.8561 54.3186 82.4061 54.0594 82.7762 53.6161L92.5469 41.8924C93.0336 41.3068 93.1365 40.4975 92.814 39.8109Z" fill="#8D8B8B"/>
<path d="M42.9888 13.2827C40.8301 13.2827 39.0809 15.0319 39.0809 17.1906V40.9031C37.314 42.1418 36.1505 44.1838 36.1505 46.5028C36.1505 50.2742 39.2194 53.3431 42.9908 53.3431C44.0237 53.3431 44.9972 53.0958 45.8757 52.6822L59.4693 60.5277C60.0866 60.8858 60.7554 61.054 61.4203 61.054C62.7697 61.054 64.0836 60.3536 64.8078 59.0991C65.8861 57.2332 65.247 54.841 63.3752 53.7626L49.7678 45.9052C49.5858 43.8395 48.5113 42.0349 46.9007 40.9071V17.1906C46.8967 15.0338 45.1456 13.2827 42.9888 13.2827ZM42.9888 49.4312C41.3723 49.4312 40.0584 48.1154 40.0584 46.5028C40.0584 44.8882 41.3742 43.5724 42.9888 43.5724C44.6034 43.5724 45.9193 44.8882 45.9193 46.5028C45.9193 48.1154 44.6034 49.4312 42.9888 49.4312Z" fill="#8D8B8B"/>
</svg>
