<svg width="93" height="93" viewBox="0 0 93 93" fill="none" xmlns="http://www.w3.org/2000/svg">
<path d="M79.363 13.6374C70.7336 5.00802 59.3078 0.193629 47.1295 0.0326954C46.9173 0.0134414 46.7068 0 46.5001 0C46.2934 0 46.0829 0.0134414 45.8707 0.0326954C33.6924 0.193448 22.2667 5.00784 13.6373 13.6372C4.85946 22.4154 0.0252686 34.0862 0.0252686 46.4999C0.0252686 58.9136 4.85946 70.5846 13.6374 79.3626C22.2668 87.992 33.6924 92.8064 45.8709 92.9671C46.0831 92.9866 46.2936 92.9998 46.5001 92.9998C46.7068 92.9998 46.9173 92.9864 47.1295 92.9671C59.308 92.8064 70.7337 87.992 79.363 79.3626C88.1408 70.5848 92.975 58.914 92.975 46.4999C92.9751 34.0862 88.1409 22.4154 79.363 13.6374ZM17.5442 17.5442C22.4814 12.607 28.4583 9.08841 34.9803 7.18735C33.5102 8.8797 32.0813 10.8262 30.7513 12.9832C29.055 15.7343 27.5862 18.7161 26.3563 21.8688H13.7804C14.9247 20.3552 16.1791 18.9092 17.5442 17.5442ZM10.2604 27.3938H24.4961C23.0158 32.5746 22.1402 38.0939 21.9239 43.7375H5.64397C6.02632 37.9606 7.6046 32.4166 10.2604 27.3938ZM10.2606 65.6062C7.60442 60.5834 6.02614 55.0394 5.64379 49.2625H21.9237C22.1401 54.9063 23.0156 60.4256 24.4959 65.6062H10.2606ZM17.5444 75.4558C16.179 74.0908 14.9246 72.6449 13.7804 71.1312H26.3565C27.5864 74.2839 29.055 77.2657 30.7515 80.0168C32.0815 82.1738 33.5104 84.1203 34.9804 85.8126C28.4586 83.9116 22.4817 80.393 17.5444 75.4558ZM43.7375 86.338C41.436 84.8321 38.3455 81.8067 35.4538 77.1171C34.294 75.2364 33.2516 73.2333 32.3301 71.1313H43.7374V86.338H43.7375ZM43.7375 65.6062H30.2607C28.6463 60.4872 27.6881 54.9528 27.4527 49.2625H43.7375V65.6062ZM43.7375 43.7375H27.4527C27.6879 38.0472 28.6461 32.5126 30.2607 27.3938H43.7375V43.7375ZM43.7375 21.8687H32.3303C33.2518 19.7667 34.2942 17.7636 35.454 15.8829C38.3455 11.1933 41.4361 8.16767 43.7377 6.66205V21.8687H43.7375ZM82.7399 27.3938C85.396 32.4167 86.9741 37.9606 87.3564 43.7375H71.0763C70.86 38.0937 69.9845 32.5744 68.5041 27.3938H82.7399ZM75.4562 17.5442C76.8213 18.9092 78.0757 20.3552 79.22 21.8688H66.6441C65.4142 18.7161 63.9456 15.7343 62.2491 12.9832C60.9191 10.8262 59.4904 8.8797 58.0201 7.18735C64.542 9.08841 70.5189 12.607 75.4562 17.5442ZM49.2627 6.66205C51.5643 8.16785 54.6547 11.1933 57.5464 15.8829C58.7062 17.7636 59.7486 19.7667 60.6701 21.8687H49.2629V6.66205H49.2627ZM49.2627 27.3938H62.7396C64.3542 32.5128 65.3123 38.0476 65.5475 43.7375H49.2627V27.3938ZM65.5474 49.2625C65.3121 54.9528 64.354 60.4874 62.7394 65.6062H49.2625V49.2625H65.5474ZM49.2627 86.338V71.1313H60.6699C59.7485 73.2333 58.706 75.2364 57.5463 77.1171C54.6547 81.8069 51.5643 84.8321 49.2627 86.338ZM75.4562 75.456C70.5189 80.3932 64.5422 83.9116 58.0201 85.8128C59.4902 84.1205 60.9191 82.174 62.2491 80.017C63.9455 77.2659 65.4142 74.2841 66.6441 71.1313H79.22C78.0759 72.645 76.8213 74.091 75.4562 75.456ZM82.7399 65.6062H68.5041C69.9845 60.4256 70.8602 54.9063 71.0763 49.2625H87.3563C86.9739 55.0394 85.3956 60.5834 82.7399 65.6062Z" fill="#8D8B8B"/>
</svg>
